<?xml version="1.0" encoding="utf-8"?>
<!-- Generator: Adobe Illustrator 25.4.1, SVG Export Plug-In . SVG Version: 6.00 Build 0)  -->
<svg version="1.1" id="Capa_1" xmlns="http://www.w3.org/2000/svg" xmlns:xlink="http://www.w3.org/1999/xlink" x="0px" y="0px"
	 viewBox="0 0 989.7 543.1" style="enable-background:new 0 0 989.7 543.1;" xml:space="preserve">
<style type="text/css">
	.st0{fill:#488BC8;}
	.st1{fill:none;stroke:#000000;stroke-width:3;stroke-miterlimit:10;}
	.st2{font-family:'ArialMT';}
	.st3{font-size:126.8539px;}
</style>
<g id="Capa_1_00000024003858427644082130000001431559273758231484_">
	<path class="st0" d="M158.3,181.2c0,0,1.4-22.8,35.2-36.3s70.1,1.9,70.1,1.9s35.2,14,45.7,60.8c0,0,4.7,35.5,30.3,35.9
		c0,0,38,4.8,48.2,39.5s0,68.8,0,68.8s-15.1,25.6-47.1,18.7c0,0-8.8,0-43.8-25.3c0,0-24-14.3-33.3-12.9c0,0-8.2,29.7-22,43.2
		s-38.8,9.6-38.8,9.6s-19-3.9-30.3-20.1c0,0-9.4-15.1-4.1-49s-29.1-35-29.1-35s-21.7,5.1-30.8,15.5c0,0-22,11.8-47.6-13.5
		s-5-57.2-5-57.2s6.9-19.5,58.3-27.8C114.2,198,150.8,194.4,158.3,181.2z"/>
	<path class="st1" d="M38.8,332.3l45.7-6.3c0,0,18.2-4.1,34.9,6.3c0,0,12.4,5.5,21.2,0s32.5,2.4,32.5,2.4l30.3,11
		c0,0,24.2,9.6,42.7,0c0,0,11.8-7.7,28.3,4.3c0,0,8.5,8.9,31.4,2.6c0,0,11.3-2.8,70.7,5.2c0,0,60.3,2.2,72.4-1.1
		c0,0,20.5-0.5,30.5-13.8c0,0,6.7-12.6,2.7-21.4c2-0.8,12.2,28.9,0.3,41.5c-10.6,11.2-18.2,6.9-18.2,6.9s-3,12.7-17.3,7.4
		c0,0,0.3,9.9-18.7,11.6c0,0-37.7,8-41.3,7.4c0,0-0.6-11.8-7.4-12.4c-6.9-0.6-6.9,7.7-6.9,7.7s0,8.8-11.8,9.6c0,0-14.3,3-16.8-5
		c0,0-9.4-7.2-17.3,4.1l-30.5,0.3c0,0,0.6-5.2-6.9-5.2c0,0-7.7-1.4-8.3,6.3h-31.4c0,0-4.1-13.2-12.9,0h-26.4c0,0,1.9-5.2-12.4-5.2
		c0,0-14.6-1.1-15.4,5.2H166c0,0,0.8-6.6-9.4-6.6s-9.1,6.6-9.1,6.6s-61.6,1.1-83.9-5.5s-28.9-13.5-28.9-13.5s-6.9-4,0-19.3
		c0,0,7.2-10.9,1.4-16.1C30.3,342.2,38.8,332.3,38.8,332.3z"/>
	<circle cx="226.3" cy="241.3" r="3.4"/>
	<circle cx="303" cy="274.2" r="3.4"/>
	<circle cx="286.4" cy="276" r="3.4"/>
	<circle cx="277" cy="261.6" r="3.4"/>
	<circle cx="260.3" cy="262.9" r="3.4"/>
	<circle cx="234.8" cy="254.8" r="3.4"/>
	<circle cx="210.2" cy="246.9" r="3.4"/>
	<circle cx="324.6" cy="284.3" r="3.4"/>
	<circle cx="310.7" cy="287.7" r="3.4"/>
	<circle cx="251.3" cy="249.6" r="3.4"/>
	<path class="st1" d="M484.2,323.7c0,0-8.4-9.9-56.8-19.8c0,0-29.7-7.6-66.9-26.3c-37.1-18.8-77.5-36.3-77.5-36.3
		s-43.5-20.4-60.1-48.5s-27.5-16.5-27.5-16.5s-8.3,15.4-11.6,35.2s-17.6,30.1-35.5,29.8s-35.8-6.4-46-20.7s-14.9-4.4-14.9-4.4
		s4.3-46.1-11.4-44.9s-4.5,28.1-4.5,28.1s16.1,26.8,10.3,33.8c0,0-6.6-6.6-11.6,2.5S57,261.6,57,261.6s-5,6.3,4.5,11.1
		c9.5,4.7,4.5,11.7,4.5,11.7s-18.2,25.4-20.7,47"/>
	<path class="st1" d="M429,358.4c0,0-8-13.8-20.6-18.2c-12.7-4.4-13.5-8.9-13.5-8.9s-6.1-11.4,19-9.8c25,1.6,43,0.6,47.4-8.9"/>
	<path class="st1" d="M209,176.4c0,0-13.2-12.9-11.1-25.9s7-9.5,7-9.5s5.6,0.4,5.3,22.9c0,0-0.4,11.5,7,20.3"/>
	<path class="st1" d="M115.8,330.2c0,0,25.4-23,45.2-22.4s30.8,8.3,30.8,8.3s28.6,12.4,6.7,28"/>
	<path class="st1" d="M74.8,327.3c0,0,51.5-50.2,61.7-54.7c0,0,13.5-11.1,33,3.4l100.2,48c0,0,19,8.2,0,23.1"/>
	<path class="st1" d="M193.9,287.7c0,0,16.2-13.2,44.2-11.7l20.6-0.1c0,0,21.1,1.4,4.9,18.1c-16.2,16.8-17.6,18.7-17.6,18.7"/>
	<path class="st1" d="M81.9,233.2c0,0,44.9,33.8,65.3,35.5"/>
	<path class="st1" d="M61.7,272.6c0,0,33.8,23.3,44.1,25.4"/>
	<path class="st1" d="M152.2,268.7l50.6-33c0,0,21.2-13.5,43.8,2.2l82.6,36.3c0,0,18.2,7.7,1.7,24.5s2.2,31.1,2.2,31.1l56.1,28.4"/>
	<text transform="matrix(1 0 0 1 527.8135 251.4376)" class="st2 st3">RC </text>
	<text transform="matrix(1 0 0 1 527.8135 383.5376)" class="st0 st2 st3">SHOES</text>
</g>
</svg>
