<?xml version="1.0" encoding="utf-8"?>
<!-- Generator: Adobe Illustrator 25.4.1, SVG Export Plug-In . SVG Version: 6.00 Build 0)  -->
<svg version="1.1" id="Capa_1" xmlns="http://www.w3.org/2000/svg" xmlns:xlink="http://www.w3.org/1999/xlink" x="0px" y="0px"
	 viewBox="0 0 416.4 174" style="enable-background:new 0 0 416.4 174;" xml:space="preserve">
<style type="text/css">
	.st0{fill:#488BC8;}
	.st1{fill:none;stroke:#FFFFFF;stroke-miterlimit:10;}
	.st2{fill:#FFFFFF;}
	.st3{font-family:'ArialMT';}
	.st4{font-size:46.1718px;}
</style>
<g id="Capa_2_00000039825300607092226250000012695782942680832135_">
	<rect width="416.4" height="174"/>
	<path class="st0" d="M99.6,46.2c0,0,0.5-8.3,12.7-13.2c12.3-4.9,25.5,0.7,25.5,0.7s13,5.1,16.7,22.2c0,0,1.6,12.9,11.1,13.2
		c0,0,13.9,1.8,17.6,14.3s0,25,0,25s-5.6,9.2-17.1,6.7c0,0-3.2,0-16-9.2c0,0-8.8-5.3-12-4.6c0,0-3,10.9-8.1,15.7
		c-5.1,4.9-14.1,3.5-14.1,3.5s-6.9-1.4-11.1-7.4c0,0-3.5-5.5-1.6-17.8c1.9-12.2-10.7-12.7-10.7-12.7s-7.9,1.8-11.3,5.5
		c0,0-8.1,4.4-17.4-4.9s-1.9-20.8-1.9-20.8s2.5-7.2,21.3-10.2C83.4,52.2,96.8,50.8,99.6,46.2z"/>
	<path class="st1" d="M56,101.2l16.7-2.3c0,0,6.7-1.6,12.7,2.3c0,0,4.6,2.1,7.6,0c3-2.1,11.8,0.9,11.8,0.9l11.1,3.9
		c0,0,8.8,3.5,15.5,0c0,0,4.4-2.8,10.4,1.6c0,0,3,3.2,11.3,0.9c0,0,4.2-0.9,25.7,1.8c0,0,22,0.7,26.4-0.5c0,0,7.4-0.2,11.1-5.1
		c0,0,2.5-4.6,0.9-7.9c0.7-0.2,4.4,10.6,0,15c-3.9,4.2-6.7,2.5-6.7,2.5s-1.2,4.6-6.3,2.8c0,0,0,3.7-6.7,4.2c0,0-13.7,3-15.1,2.8
		c0,0-0.2-4.4-2.8-4.6c-2.5-0.2-2.5,2.8-2.5,2.8s0,3.2-4.4,3.5c0,0-5.3,1.2-6-1.8c0,0-3.5-2.5-6.3,1.6h-11.1c0,0,0.2-1.8-2.5-1.8
		c0,0-2.8-0.5-3,2.3h-11.1c0,0-1.6-4.9-4.6,0h-9.7c0,0,0.7-1.8-4.6-1.8c0,0-5.3-0.5-5.6,1.8h-6c0,0,0.2-2.3-3.5-2.3
		c-3.7,0-3.2,2.3-3.2,2.3s-22.5,0.5-30.6-2.1c-8.1-2.3-10.7-4.9-10.7-4.9s-2.5-1.4,0-6.9c0,0,2.5-3.9,0.5-5.8
		C52.8,104.7,56,101.2,56,101.2z"/>
	<ellipse class="st1" cx="124.4" cy="67.9" rx="1.2" ry="1.2"/>
	<ellipse class="st1" cx="152.4" cy="80" rx="1.2" ry="1.2"/>
	<ellipse class="st1" cx="146.1" cy="80.6" rx="1.2" ry="1.2"/>
	<ellipse class="st1" cx="142.9" cy="75.3" rx="1.2" ry="1.2"/>
	<ellipse class="st1" cx="136.6" cy="75.8" rx="1.2" ry="1.2"/>
	<ellipse class="st1" cx="127.4" cy="73" rx="1.2" ry="1.2"/>
	<ellipse class="st1" cx="118.6" cy="70" rx="1.2" ry="1.2"/>
	<ellipse class="st1" cx="160.3" cy="83.7" rx="1.2" ry="1.2"/>
	<ellipse class="st1" cx="155.2" cy="84.8" rx="1.2" ry="1.2"/>
	<ellipse class="st1" cx="133.4" cy="70.9" rx="1.2" ry="1.2"/>
	<path class="st1" d="M218.4,98c0,0-3-3.7-20.6-7.2c0,0-10.9-2.8-24.3-9.7C160,74.2,145,67.9,145,67.9s-16-7.4-22-17.6s-10-6-10-6
		s-3,5.5-4.2,12.7s-6.5,10.9-13,10.9c-6.5-0.2-13-2.3-16.7-7.6s-5.3-1.6-5.3-1.6s1.6-16.9-4.2-16.4s-1.6,10.2-1.6,10.2
		s5.8,9.7,3.7,12.2c0,0-2.3-2.3-4.2,0.9s-4.9,9.5-4.9,9.5s-1.9,2.3,1.6,3.9c3.5,1.6,1.6,4.2,1.6,4.2s-6.7,9.2-7.6,17.1"/>
	<path class="st1" d="M198.3,110.7c0,0-3-5.1-7.4-6.7s-4.9-3.2-4.9-3.2s-2.3-4.2,6.9-3.5c9,0.7,15.7,0.2,17.4-3.2"/>
	<path class="st1" d="M118.1,44.4c0,0-4.9-4.6-4.2-9.5c0.7-4.9,2.5-3.5,2.5-3.5s2.1,0.2,1.9,8.3c0,0-0.2,4.2,2.5,7.4"/>
	<path class="st1" d="M84.1,100.3c0,0,9.3-8.3,16.4-8.1c7.2,0.2,11.3,3,11.3,3s10.4,4.6,2.5,10.2"/>
	<path class="st1" d="M69,99.4c0,0,18.8-18.3,22.5-19.9c0,0,4.9-3.9,12,1.2l36.6,17.6c0,0,6.9,3,0,8.3"/>
	<path class="st1" d="M112.6,84.8c0,0,6-4.9,16.2-4.2h7.4c0,0,7.6,0.5,1.9,6.7c-6,6-6.5,6.7-6.5,6.7"/>
	<path class="st1" d="M71.6,65.2c0,0,16.4,12.2,23.9,12.9"/>
	<path class="st1" d="M64.4,79.5c0,0,12.3,8.6,16.2,9.2"/>
	<path class="st1" d="M97.3,77.9l18.5-12c0,0,7.6-4.9,16,0.7l30.1,13.2c0,0,6.7,2.8,0.7,9c-6,6,0.7,11.3,0.7,11.3l20.4,10.4"/>
	<text transform="matrix(1.0022 0 0 1 234.3428 71.7031)" class="st2 st3 st4">RC</text>
	<text transform="matrix(1.0022 0 0 1 285.9893 71.7031)" class="st3 st4"> </text>
	<text transform="matrix(1.0022 0 0 1 234.3428 119.7676)" class="st0 st3 st4">SHOES</text>
</g>
</svg>
